HIERARCHY
ROOT Hips
{
	OFFSET 0.000000 0.000000 0.000000
	CHANNELS 6 Xposition Yposition Zposition Zrotation Yrotation Xrotation 
	JOINT LHipJoint
	{
		OFFSET 0.000000 0.000000 0.000000
		CHANNELS 3 Zrotation Yrotation Xrotation
		JOINT LeftUpLeg
		{
			OFFSET 1.363060 -1.794630 0.839290
			CHANNELS 3 Zrotation Yrotation Xrotation
			JOINT LeftLeg
			{
				OFFSET 2.448110 -6.726130 0.000000
				CHANNELS 3 Zrotation Yrotation Xrotation
				JOINT LeftFoot
				{
					OFFSET 2.562200 -7.039590 0.000000
					CHANNELS 3 Zrotation Yrotation Xrotation
					JOINT LeftToeBase
					{
						OFFSET 0.157640 -0.433110 2.322550
						CHANNELS 3 Zrotation Yrotation Xrotation
						End Site
						{
							OFFSET 0.000000 0.000000 0.000000
						}
					}
				}
			}
		}
	}
	JOINT RHipJoint
	{
		OFFSET 0.000000 0.000000 0.000000
		CHANNELS 3 Zrotation Yrotation Xrotation
		JOINT RightUpLeg
		{
			OFFSET -1.305520 -1.794630 0.839290
			CHANNELS 3 Zrotation Yrotation Xrotation
			JOINT RightLeg
			{
				OFFSET -2.542530 -6.985550 0.000000
				CHANNELS 3 Zrotation Yrotation Xrotation
				JOINT RightFoot
				{
					OFFSET -2.568260 -7.056230 0.000000
					CHANNELS 3 Zrotation Yrotation Xrotation
					JOINT RightToeBase
					{
						OFFSET -0.164730 -0.452590 2.363150
						CHANNELS 3 Zrotation Yrotation Xrotation
						End Site
						{
							OFFSET 0.000000 0.000000 0.000000
						}
					}
				}
			}
		}
	}
	JOINT LowerBack
	{
		OFFSET 0.000000 0.000000 0.000000
		CHANNELS 3 Zrotation Yrotation Xrotation
		JOINT Spine
		{
			OFFSET 0.028270 2.035590 -0.193380
			CHANNELS 3 Zrotation Yrotation Xrotation
			JOINT Spine1
			{
				OFFSET 0.056720 2.048850 -0.042750
				CHANNELS 3 Zrotation Yrotation Xrotation
				JOINT Neck
				{
					OFFSET 0.000000 0.000000 0.000000
					CHANNELS 3 Zrotation Yrotation Xrotation
					JOINT Neck1
					{
						OFFSET -0.054170 1.746240 0.172020
						CHANNELS 3 Zrotation Yrotation Xrotation
						JOINT Head
						{
							OFFSET 0.104070 1.761360 -0.123970
							CHANNELS 3 Zrotation Yrotation Xrotation
							End Site
							{
								OFFSET 0.000000 0.000000 0.000000
							}
						}
					}
				}
				JOINT LeftShoulder
				{
					OFFSET 0.000000 0.000000 0.000000
					CHANNELS 3 Zrotation Yrotation Xrotation
					JOINT LeftArm
					{
						OFFSET 3.362410 1.200890 -0.311210
						CHANNELS 3 Zrotation Yrotation Xrotation
						JOINT LeftForeArm
						{
							OFFSET 4.983000 -0.000000 -0.000000
							CHANNELS 3 Zrotation Yrotation Xrotation
							JOINT LeftHand
							{
								OFFSET 3.483560 -0.000000 -0.000000
								CHANNELS 3 Zrotation Yrotation Xrotation
								JOINT LeftFingerBase
								{
									OFFSET 0.000000 0.000000 0.000000
									CHANNELS 3 Zrotation Yrotation Xrotation
									JOINT LeftHandIndex1
									{
										OFFSET 0.715260 -0.000000 -0.000000
										CHANNELS 3 Zrotation Yrotation Xrotation
										End Site
										{
											OFFSET 0.000000 0.000000 0.000000
										}
									}
								}
								JOINT LThumb
								{
									OFFSET 0.000000 0.000000 0.000000
									CHANNELS 3 Zrotation Yrotation Xrotation
									End Site
									{
										OFFSET 0.000000 0.000000 0.000000
									}
								}
							}
						}
					}
				}
				JOINT RightShoulder
				{
					OFFSET 0.000000 0.000000 0.000000
					CHANNELS 3 Zrotation Yrotation Xrotation
					JOINT RightArm
					{
						OFFSET -3.136600 1.374050 -0.404650
						CHANNELS 3 Zrotation Yrotation Xrotation
						JOINT RightForeArm
						{
							OFFSET -5.241900 -0.000000 -0.000000
							CHANNELS 3 Zrotation Yrotation Xrotation
							JOINT RightHand
							{
								OFFSET -3.444170 -0.000000 -0.000000
								CHANNELS 3 Zrotation Yrotation Xrotation
								JOINT RightFingerBase
								{
									OFFSET 0.000000 0.000000 0.000000
									CHANNELS 3 Zrotation Yrotation Xrotation
									JOINT RightHandIndex1
									{
										OFFSET -0.622530 -0.000000 -0.000000
										CHANNELS 3 Zrotation Yrotation Xrotation
										End Site
										{
											OFFSET 0.000000 0.000000 0.000000
										}
									}
								}
								JOINT RThumb
								{
									OFFSET 0.000000 0.000000 0.000000
									CHANNELS 3 Zrotation Yrotation Xrotation
									End Site
									{
										OFFSET 0.000000 0.000000 0.000000
									}
								}
							}
						}
					}
				}
			}
		}
	}
}
MOTION
Frames: 5
Frame Time: 0.008333
3.762982 16.902538 -11.378980 -11.813049 -11.331221 42.036937 10.741883 2.478569 -1.834404 5.129901 -6.687461 -55.070533 3.145905 16.214438 40.260858 1.180505 -0.728829 -23.143747 10.079300 -17.454200 -59.753200 -12.821219 -3.737901 1.432082 35.648071 19.882322 -60.633020 -1.741895 -16.004462 35.883441 1.795795 14.128347 -17.500809 -8.923800 16.758400 -55.826200 -2.104311 -4.922442 40.969242 -3.585704 -7.180240 9.218344 -3.114182 -3.351414 -4.756662 -6.808239 -2.692207 -20.897484 2.420564 -1.372963 19.793815 0.426600 -1.127100 14.169800 2.514008 0.056031 0.836721 29.285005 -38.686519 4.948576 145.068714 -44.883628 -105.137829 0.984167 0.511609 -85.946732 142.320423 -54.516854 -147.114700 -7.125000 0.000000 0.000000 172.388800 58.547300 -2.530800 -3.600078 0.440308 -0.995460 56.705385 10.899004 45.225416 -149.582774 42.336098 -107.408130 1.196432 -0.753634 4.185832 -50.778478 14.686936 -18.707900 7.125000 0.000000 0.000000 -15.537000 -6.682300 -14.167900 
3.762316 16.903966 -11.372603 -11.730778 -11.355224 41.911879 10.741282 2.476624 -1.834221 4.978768 -6.693865 -54.975867 3.152279 16.217145 40.285685 1.174714 -0.777814 -23.113922 10.110300 -17.471400 -59.856300 -12.821720 -3.734467 1.422395 35.624607 19.753724 -60.551317 -1.759012 -16.013602 35.939547 1.799068 14.172785 -17.532606 -8.957800 16.780500 -55.943900 -2.062858 -4.979655 41.077248 -3.525917 -7.227988 9.199217 -3.056012 -3.372253 -4.800458 -6.684099 -2.581710 -21.032277 2.256043 -1.230730 19.840642 0.344900 -1.078500 14.226100 2.515517 0.052951 0.826317 30.450504 -38.004529 3.722594 144.112097 -45.584504 -104.459942 0.964471 0.448822 -85.607020 146.511492 -55.050173 -150.876000 -7.125000 0.000000 0.000000 169.074600 59.163700 -3.809100 -3.592499 0.424175 -0.998614 56.855470 11.087632 45.321230 -149.663771 42.283574 -107.463777 1.190422 -0.757587 4.300572 -50.313414 14.541425 -18.262400 7.125000 0.000000 0.000000 -15.296600 -7.070300 -13.811800 
3.760603 16.902062 -11.370795 -11.685126 -11.403817 41.903485 10.734215 2.477252 -1.834401 4.855333 -6.570580 -55.031562 3.168081 16.229887 40.343271 1.160603 -0.859198 -23.022628 10.126300 -17.480300 -59.909700 -12.817469 -3.733803 1.421459 35.597424 19.718877 -60.589810 -1.771059 -16.031813 36.002057 1.801103 14.210436 -17.561072 -8.979300 16.794400 -56.018400 -2.105161 -5.034520 41.029037 -3.490689 -7.302501 9.179305 -2.995146 -3.406784 -4.783868 -6.353420 -2.372538 -21.198183 2.009918 -1.019183 19.869405 0.196300 -0.989200 14.279000 2.518624 0.040826 0.815772 31.455721 -37.197886 2.884692 143.608077 -45.950385 -104.086904 0.960857 0.466460 -86.222216 145.060912 -54.795557 -149.612600 -7.125000 0.000000 0.000000 170.247100 59.041500 -3.366500 -3.581516 0.397831 -1.004672 57.022694 11.384313 45.525290 -149.718263 42.258220 -107.498903 1.182723 -0.767577 4.290532 -49.740092 14.672186 -18.063900 7.125000 0.000000 0.000000 -14.917400 -7.097700 -13.435300 
3.760698 16.902253 -11.366036 -11.665658 -11.494262 41.816000 10.731849 2.475269 -1.836726 4.743974 -6.503589 -54.945370 3.185670 16.240033 40.406797 1.154647 -0.921356 -22.995592 10.110600 -17.471600 -59.857300 -12.821219 -3.730252 1.417726 35.545160 19.717489 -60.512401 -1.785872 -16.049166 36.073597 1.796053 14.217822 -17.596036 -8.972000 16.789600 -55.993100 -2.131445 -5.066689 41.050201 -3.472714 -7.351577 9.140093 -2.965633 -3.427723 -4.817729 -6.045015 -2.150400 -21.253911 1.810913 -0.800643 19.878337 0.076100 -0.893000 14.296600 2.523118 0.028734 0.811298 32.462450 -36.607394 2.170196 143.315726 -46.164361 -103.861171 0.964136 0.553056 -87.767856 139.378081 -53.668182 -144.608400 -7.125000 0.000000 0.000000 174.905200 58.373100 -1.669300 -3.569077 0.375228 -1.010672 57.167417 11.644941 45.826738 -149.724964 42.267447 -107.502751 1.176054 -0.776057 4.390670 -49.364558 14.743026 -17.919200 7.125000 0.000000 0.000000 -14.672200 -7.134800 -13.187400 
3.761174 16.900064 -11.364989 -11.621597 -11.584448 41.786694 10.727086 2.473836 -1.836790 4.672569 -6.506913 -54.919454 3.195576 16.252891 40.454621 1.154654 -0.904877 -22.980652 10.090100 -17.460200 -59.789100 -12.819432 -3.727692 1.416989 35.452998 19.723309 -60.531682 -1.798953 -16.068682 36.142705 1.794466 14.242486 -17.632194 -8.977600 16.793300 -56.012500 -2.072755 -4.999337 40.959289 -3.367914 -7.232572 9.089861 -2.904249 -3.380376 -4.843249 -6.097271 -2.147801 -21.170345 1.782881 -0.781786 19.894753 0.075400 -0.894800 14.287700 2.526437 0.027897 0.814157 33.367257 -36.482754 1.437139 142.758758 -46.549594 -103.453817 0.959462 0.608793 -89.018949 136.270334 -52.897539 -141.866100 -7.125000 0.000000 0.000000 177.499500 57.916800 -0.790800 -3.564721 0.371633 -1.011136 57.152382 11.634825 45.930334 -149.737507 42.257171 -107.513796 1.175332 -0.774345 4.661620 -49.356717 14.453761 -17.603000 7.125000 0.000000 0.000000 -14.742100 -7.547500 -13.131800 
